%
M48
M72
T01C0.0236
T02C0.0360
T03C0.0400
%
T01
X5980Y18780
X7980Y18780
T02
X7980Y15280
X6980Y15280
X6980Y14280
X7980Y14280
X8980Y14280
X9980Y14280
X10980Y14280
X10980Y15280
X9980Y15280
X8980Y15280
X15230Y15280
X16230Y15280
X17230Y15280
X18230Y15280
X19230Y15280
X19230Y14280
X18230Y14280
X17230Y14280
X16230Y14280
X15230Y14280
T03
X1043Y1593
X2043Y1593
X3043Y1593
X5980Y8280
X6980Y8280
X7980Y8280
X8105Y11655
X7105Y11655
X6105Y11655
X9105Y11655
X10105Y11655
X12130Y6455
X13130Y6455
X14130Y6455
X20169Y17016
X20855Y17630
X20148Y18337
X19462Y17723
X18755Y18430
X19441Y19044
X5980Y21030
X4980Y21030
X3980Y21030
X3980Y22030
X4980Y22030
X5980Y22030
M30
