G75*
%MOIN*%
%OFA0B0*%
%FSLAX24Y24*%
%IPPOS*%
%LPD*%
%AMOC8*
5,1,8,0,0,1.08239X$1,22.5*
%
%ADD10C,0.0160*%
%ADD11C,0.0740*%
%ADD12OC8,0.0560*%
%ADD13C,0.0600*%
%ADD14C,0.0120*%
%ADD15C,0.0356*%
D10*
X000980Y000280D02*
X000230Y001030D01*
X000180Y001080D02*
X000180Y002030D01*
X000630Y002480D01*
X002230Y002480D01*
X002480Y002730D01*
X002480Y005530D01*
X004730Y007780D01*
X004730Y019030D01*
X003080Y020680D01*
X003080Y022930D01*
X007380Y022930D01*
X008780Y021530D01*
X018180Y021530D01*
X021730Y017980D01*
X021730Y013180D01*
X021280Y012730D01*
X015880Y012730D01*
X014980Y011830D01*
X014980Y006030D01*
X014530Y005580D01*
X004830Y005580D01*
X004280Y005030D01*
X004280Y000980D01*
X003480Y000180D01*
X001080Y000180D01*
X000180Y001080D01*
X006980Y008280D02*
X006980Y009030D01*
X006105Y009905D01*
X006105Y011655D01*
X006105Y012405D01*
X006230Y012530D01*
X006230Y014780D01*
X006730Y015280D01*
X006980Y015280D01*
X005980Y016030D02*
X008230Y016030D01*
X008480Y015780D01*
X008480Y014780D01*
X008980Y014280D01*
X007980Y014280D02*
X007980Y013530D01*
X008730Y012780D01*
X010730Y012780D01*
X012130Y011380D01*
X012130Y006455D01*
X013130Y006455D02*
X013130Y011880D01*
X011730Y013280D01*
X011730Y015530D01*
X011230Y016030D01*
X010230Y016030D01*
X009980Y015780D01*
X009980Y015280D01*
X009980Y015530D01*
X008980Y015280D02*
X008980Y016280D01*
X009480Y016780D01*
X011980Y016780D01*
X012480Y016280D01*
X012480Y013780D01*
X014130Y012130D01*
X014130Y006455D01*
X015230Y015280D02*
X015230Y015780D01*
X018494Y019044D01*
X019441Y019044D01*
X020169Y017016D02*
X020169Y016969D01*
X019480Y016280D01*
X017480Y016280D01*
X017230Y016030D01*
X017230Y015280D01*
X007980Y018780D02*
X005980Y018780D01*
X005480Y020830D02*
X005480Y016530D01*
X005980Y016030D01*
X005480Y021230D02*
X005480Y021530D01*
X004980Y022030D01*
D11*
X004980Y022030D03*
X003980Y022030D03*
X003980Y021030D03*
X004980Y021030D03*
X005980Y021030D03*
X005980Y022030D03*
X006105Y011655D03*
X007105Y011655D03*
X008105Y011655D03*
X009105Y011655D03*
X010105Y011655D03*
X012130Y006455D03*
X013130Y006455D03*
X014130Y006455D03*
X003043Y001593D03*
X002043Y001593D03*
X001043Y001593D03*
X019462Y017723D03*
X020148Y018337D03*
X020855Y017630D03*
X020169Y017016D03*
X018755Y018430D03*
X019441Y019044D03*
D12*
X019230Y015280D03*
X018230Y015280D03*
X017230Y015280D03*
X016230Y015280D03*
X015230Y015280D03*
X015230Y014280D03*
X016230Y014280D03*
X017230Y014280D03*
X018230Y014280D03*
X019230Y014280D03*
X010980Y014280D03*
X009980Y014280D03*
X008980Y014280D03*
X007980Y014280D03*
X006980Y014280D03*
X006980Y015280D03*
X007980Y015280D03*
X008980Y015280D03*
X009980Y015280D03*
X010980Y015280D03*
D13*
X007980Y008580D02*
X007980Y007980D01*
X006980Y007980D02*
X006980Y008580D01*
X005980Y008580D02*
X005980Y007980D01*
D14*
X005480Y020830D02*
X005480Y021230D01*
D15*
X005980Y018780D03*
X007980Y018780D03*
M02*
