G75*
%MOIN*%
%OFA0B0*%
%FSLAX24Y24*%
%IPPOS*%
%LPD*%
%AMOC8*
5,1,8,0,0,1.08239X$1,22.5*
%
%ADD10C,0.0160*%
%ADD11C,0.0780*%
%ADD12OC8,0.0600*%
%ADD13C,0.0640*%
%ADD14R,0.0500X0.0670*%
D10*
X000980Y000280D02*
X000230Y001030D01*
X000180Y001080D02*
X000180Y002030D01*
X000630Y002480D01*
X002230Y002480D01*
X002480Y002730D01*
X002480Y005530D01*
X004730Y007780D01*
X004730Y019030D01*
X003080Y020680D01*
X003080Y022930D01*
X007380Y022930D01*
X008780Y021530D01*
X018180Y021530D01*
X021730Y017980D01*
X021730Y013180D01*
X021280Y012730D01*
X015880Y012730D01*
X014980Y011830D01*
X014980Y006030D01*
X014530Y005580D01*
X004830Y005580D01*
X004280Y005030D01*
X004280Y000980D01*
X003480Y000180D01*
X001080Y000180D01*
X000180Y001080D01*
D11*
X001043Y001593D03*
X002043Y001593D03*
X003043Y001593D03*
X012130Y006455D03*
X013130Y006455D03*
X014130Y006455D03*
X010105Y011655D03*
X009105Y011655D03*
X008105Y011655D03*
X007105Y011655D03*
X006105Y011655D03*
X005980Y021030D03*
X004980Y021030D03*
X003980Y021030D03*
X003980Y022030D03*
X004980Y022030D03*
X005980Y022030D03*
X018755Y018430D03*
X019441Y019044D03*
X020148Y018337D03*
X019462Y017723D03*
X020169Y017016D03*
X020855Y017630D03*
D12*
X019230Y015280D03*
X018230Y015280D03*
X017230Y015280D03*
X016230Y015280D03*
X015230Y015280D03*
X015230Y014280D03*
X016230Y014280D03*
X017230Y014280D03*
X018230Y014280D03*
X019230Y014280D03*
X010980Y014280D03*
X009980Y014280D03*
X008980Y014280D03*
X007980Y014280D03*
X006980Y014280D03*
X006980Y015280D03*
X007980Y015280D03*
X008980Y015280D03*
X009980Y015280D03*
X010980Y015280D03*
D13*
X007980Y008580D02*
X007980Y007980D01*
X006980Y007980D02*
X006980Y008580D01*
X005980Y008580D02*
X005980Y007980D01*
D14*
X007380Y020530D03*
X007980Y020530D03*
X008580Y020530D03*
M02*
